# xmcd
#
# Track frame offsets:
#	150
#	14270
#	36853
#	60289
#	78430
#	101927
#	128175
#	141749
#	162231
#	189062
#	210752
#	226759
#	245863
#
# Disc length: 3401 seconds
#
# Revision: 1
# Processed by: cddbd v1.4PL0 Copyright (c) Steve Scherf et al.
# Submitted via: audiograbber 1.80.04
#
DISCID=a80d470d
DTITLE=Liz Mandville Greeson - Back In Love Again
DYEAR=2001
DGENRE=Blues
TTITLE0=Soul Tender
TTITLE1=Juicehead Man
TTITLE2=All Alone
TTITLE3=The Gift
TTITLE4=Face The Music
TTITLE5=Back In Love Again
TTITLE6=For Real
TTITLE7=Johnny And Me
TTITLE8=The Night Thing
TTITLE9=All My Love
TTITLE10=Lip Service
TTITLE11=Brokenhearted Fool
TTITLE12=Shine Clear With Joy
EXTD=
EXTT0=
EXTT1=
EXTT2=
EXTT3=
EXTT4=
EXTT5=
EXTT6=
EXTT7=
EXTT8=
EXTT9=
EXTT10=
EXTT11=
EXTT12=
PLAYORDER=
